<svg width="18" height="18" viewBox="0 0 18 18" fill="none" xmlns="http://www.w3.org/2000/svg">
<g clip-path="url(#clip0_284_312)">
<path d="M16.875 1.125C16.875 0.671488 16.6008 0.26016 16.1789 0.084379C15.757 -0.0914022 15.2754 0.00703526 14.952 0.326957L13.4191 1.86329C11.7316 3.55079 9.44297 4.5 7.05586 4.5H6.75H5.625H2.25C1.00898 4.5 0 5.50899 0 6.75V10.125C0 11.366 1.00898 12.375 2.25 12.375V16.875C2.25 17.4973 2.75273 18 3.375 18H5.625C6.24727 18 6.75 17.4973 6.75 16.875V12.375H7.05586C9.44297 12.375 11.7316 13.3242 13.4191 15.0117L14.952 16.5445C15.2754 16.868 15.757 16.9629 16.1789 16.7871C16.6008 16.6113 16.875 16.2035 16.875 15.7465V10.5609C17.5289 10.2516 18 9.41836 18 8.4375C18 7.45664 17.5289 6.62344 16.875 6.31407V1.125ZM14.625 3.82149V8.4375V13.0535C12.5578 11.1727 9.86133 10.125 7.05586 10.125H6.75V6.75H7.05586C9.86133 6.75 12.5578 5.70235 14.625 3.82149Z" fill="#2563EB"/>
</g>
<defs>
<clipPath id="clip0_284_312">
<path d="M0 0H18V18H0V0Z" fill="white"/>
</clipPath>
</defs>
</svg>
